<svg width="42" height="42" viewBox="0 0 42 42" fill="none" xmlns="http://www.w3.org/2000/svg">
<circle cx="21" cy="21" r="20.5" fill="white" stroke="#407D60"/>
<path d="M20.9998 24.2C22.7671 24.2 24.1998 22.7673 24.1998 21C24.1998 19.2327 22.7671 17.8 20.9998 17.8C19.2325 17.8 17.7998 19.2327 17.7998 21C17.7998 22.7673 19.2325 24.2 20.9998 24.2Z" fill="#407D60"/>
<path d="M18 11L16.17 13H13C11.9 13 11 13.9 11 15V27C11 28.1 11.9 29 13 29H29C30.1 29 31 28.1 31 27V15C31 13.9 30.1 13 29 13H25.83L24 11H18ZM21 26C18.24 26 16 23.76 16 21C16 18.24 18.24 16 21 16C23.76 16 26 18.24 26 21C26 23.76 23.76 26 21 26Z" fill="#407D60"/>
</svg>
