<svg width="24" height="24" viewBox="0 0 24 24" fill="none" xmlns="http://www.w3.org/2000/svg">
<path fill-rule="evenodd" clip-rule="evenodd" d="M16.8498 8.36397C17.2403 7.97344 17.2403 7.34028 16.8498 6.94975C16.4593 6.55923 15.8261 6.55923 15.4356 6.94975L11.9001 10.4853L8.36452 6.94972C7.97399 6.5592 7.34083 6.5592 6.9503 6.94972C6.55978 7.34025 6.55978 7.97341 6.9503 8.36394L10.4858 11.8995L6.95028 15.435C6.55976 15.8256 6.55976 16.4587 6.95028 16.8492C7.34081 17.2398 7.97397 17.2398 8.3645 16.8492L11.9001 13.3137L15.4356 16.8492C15.8261 17.2397 16.4593 17.2397 16.8498 16.8492C17.2403 16.4587 17.2403 15.8255 16.8498 15.435L13.3143 11.8995L16.8498 8.36397Z" fill="#A8A8A8"/>
</svg>
