<svg width="24" height="24" viewBox="0 0 24 24" fill="none" xmlns="http://www.w3.org/2000/svg">
<path fill-rule="evenodd" clip-rule="evenodd" d="M17 8H18C19.1 8 20 8.9 20 10V20C20 21.1 19.1 22 18 22H6C4.9 22 4 21.1 4 20V10C4 8.9 4.9 8 6 8H7V6C7 3.24 9.24 1 12 1C14.76 1 17 3.24 17 6V8ZM11 14.7303C10.4033 14.3831 10 13.7364 10 13C10 11.9 10.9 11 12 11C13.1 11 14 11.9 14 13C14 13.7364 13.5967 14.3831 13 14.7303V18C13 18.5523 12.5523 19 12 19C11.4477 19 11 18.5523 11 18V14.7303ZM8.9 8H15.1V6C15.1 4.29 13.71 2.9 12 2.9C10.29 2.9 8.9 4.29 8.9 6V8Z" fill="#383838"/>
</svg>
