<svg width="30" height="30" viewBox="0 0 30 30" fill="red" xmlns="http://www.w3.org/2000/svg">
<path fill-rule="evenodd" clip-rule="evenodd" d="M25 3.75H23.75V1.25H21.25V3.75H8.75V1.25H6.25V3.75H5C3.625 3.75 2.5 4.875 2.5 6.25V26.25C2.5 27.625 3.625 28.75 5 28.75H25C26.375 28.75 27.5 27.625 27.5 26.25V6.25C27.5 4.875 26.375 3.75 25 3.75ZM25 26.25H5V10H25V26.25ZM8.75 12.5H11.25V15H8.75V12.5ZM16.25 12.5H13.75V15H16.25V12.5ZM18.75 12.5H21.25V15H18.75V12.5ZM11.25 17.5H8.75V20H11.25V17.5ZM13.75 17.5H16.25V20H13.75V17.5ZM21.25 17.5H18.75V20H21.25V17.5Z" fill="white"/>
</svg>
