<svg width="30" height="30" viewBox="0 0 30 30" fill="none" xmlns="http://www.w3.org/2000/svg">
<path d="M28.75 10C28.75 11.375 27.625 12.5 26.25 12.5C26.025 12.5 25.8125 12.475 25.6125 12.4125L21.1625 16.85C21.225 17.05 21.25 17.275 21.25 17.5C21.25 18.875 20.125 20 18.75 20C17.375 20 16.25 18.875 16.25 17.5C16.25 17.275 16.275 17.05 16.3375 16.85L13.15 13.6625C12.95 13.725 12.725 13.75 12.5 13.75C12.275 13.75 12.05 13.725 11.85 13.6625L6.1625 19.3625C6.225 19.5625 6.25 19.775 6.25 20C6.25 21.375 5.125 22.5 3.75 22.5C2.375 22.5 1.25 21.375 1.25 20C1.25 18.625 2.375 17.5 3.75 17.5C3.975 17.5 4.1875 17.525 4.3875 17.5875L10.0875 11.9C10.025 11.7 10 11.475 10 11.25C10 9.875 11.125 8.75 12.5 8.75C13.875 8.75 15 9.875 15 11.25C15 11.475 14.975 11.7 14.9125 11.9L18.1 15.0875C18.3 15.025 18.525 15 18.75 15C18.975 15 19.2 15.025 19.4 15.0875L23.8375 10.6375C23.775 10.4375 23.75 10.225 23.75 10C23.75 8.625 24.875 7.5 26.25 7.5C27.625 7.5 28.75 8.625 28.75 10Z" fill="white"/>
</svg>
