<svg width="48" height="48" viewBox="0 0 48 48" fill="none" xmlns="http://www.w3.org/2000/svg">
<rect x="2" y="32" width="44" height="2" rx="1" fill="#9CC2B0"/>
<rect x="6" y="36" width="28" height="2" rx="1" fill="#9CC2B0"/>
<rect x="15" y="40" width="28" height="2" rx="1" fill="#9CC2B0"/>
<path d="M33.9506 28H14.0494C14.5511 22.9467 18.8147 19 24 19C29.1853 19 33.4489 22.9467 33.9506 28Z" fill="#9CC2B0" stroke="#9CC2B0" stroke-width="2" stroke-linecap="round"/>
<rect x="23" y="5" width="2" height="10" rx="1" fill="#9CC2B0"/>
<rect x="10.6694" y="10" width="2" height="10" rx="1" transform="rotate(-30 10.6694 10)" fill="#9CC2B0"/>
<rect width="2" height="10" rx="1" transform="matrix(0.866025 0.5 0.5 -0.866025 31.6694 18)" fill="#9CC2B0"/>
<rect x="2" y="21" width="2" height="10" rx="1" transform="rotate(-60 2 21)" fill="#9CC2B0"/>
<rect width="2" height="10" rx="1" transform="matrix(0.5 0.866025 0.866025 -0.5 35.9998 24)" fill="#9CC2B0"/>
</svg>
