<svg width="24" height="24" viewBox="0 0 24 24" fill="none" xmlns="http://www.w3.org/2000/svg">
<path d="M13.3945 5.47033C12.9367 5.42081 12.4715 5.39243 12 5.38537C9.9395 5.39451 7.80354 5.89571 5.78174 6.85609C4.28058 7.59853 2.81828 8.64667 1.54834 9.93957C0.92464 10.5996 0.12862 11.5552 0 12.5748C0.0152 13.458 0.96306 14.5482 1.54834 15.2101C2.7392 16.4522 4.16342 17.4703 5.78174 18.2936C5.83674 18.3203 5.89194 18.3466 5.94726 18.3727L4.44582 20.9947L6.48592 22.2004L17.5142 2.99977L15.5505 1.79961L13.3945 5.47033ZM18.0513 6.77991L16.5527 9.37705C17.2421 10.2727 17.6514 11.3772 17.6514 12.5748C17.6514 15.5599 15.1209 17.9801 11.9985 17.9801C11.8635 17.9801 11.7327 17.9655 11.6001 17.9566L10.6084 19.6734C11.0657 19.7224 11.5282 19.7581 12 19.7643C14.0624 19.755 16.1972 19.248 18.2168 18.2936C19.7179 17.5511 21.1817 16.503 22.4516 15.2101C23.0754 14.5501 23.8713 13.5944 24 12.5748C23.9848 11.6916 23.0369 10.6014 22.4516 9.93955C21.2608 8.69743 19.8351 7.67929 18.2168 6.85605C18.1622 6.82957 18.1062 6.80575 18.0513 6.77991ZM11.9985 7.16957C12.1355 7.16957 12.2713 7.17505 12.4058 7.18421L11.2441 9.19543C9.61386 9.52595 8.39062 10.913 8.39062 12.5734C8.39062 12.9904 8.46744 13.3897 8.60888 13.7599C8.60904 13.7603 8.60872 13.7609 8.60888 13.7613L7.44432 15.7784C6.7533 14.882 6.34568 13.7738 6.34568 12.5748C6.3457 9.58969 8.87616 7.16955 11.9985 7.16957ZM15.3779 11.4103L12.7603 15.9454C14.3818 15.6087 15.5962 14.2279 15.5962 12.5734C15.5962 12.1639 15.5145 11.7746 15.3779 11.4103Z" fill="#407D60"/>
</svg>
