<svg width="18" height="18" viewBox="0 0 18 18" fill="none" xmlns="http://www.w3.org/2000/svg">
<path d="M9.78369 11.1626H8.26025L8.04443 4.75781H9.99951L9.78369 11.1626ZM9.02197 12.1655C9.33089 12.1655 9.57845 12.2565 9.76465 12.4385C9.95508 12.6204 10.0503 12.8532 10.0503 13.1367C10.0503 13.416 9.95508 13.6466 9.76465 13.8286C9.57845 14.0106 9.33089 14.1016 9.02197 14.1016C8.71729 14.1016 8.46973 14.0106 8.2793 13.8286C8.0931 13.6466 8 13.416 8 13.1367C8 12.8574 8.0931 12.6268 8.2793 12.4448C8.46973 12.2586 8.71729 12.1655 9.02197 12.1655Z" fill="#E97979"/>
<circle cx="9" cy="9" r="8" stroke="#E97979" stroke-width="2"/>
</svg>
