<svg width="20" height="20" viewBox="0 0 20 20" fill="none" xmlns="http://www.w3.org/2000/svg">
<path d="M13.9219 10.7187C14.9687 9.67187 15.5469 8.27734 15.5469 6.79688C15.5469 5.31445 14.9707 3.92187 13.9219 2.875C12.875 1.82812 11.4805 1.25 10 1.25C8.51953 1.25 7.125 1.82617 6.07813 2.875C5.03125 3.92383 4.45312 5.31445 4.45312 6.79688C4.45312 8.04297 4.86133 9.22656 5.61328 10.1934C5.75586 10.377 5.91016 10.5508 6.07617 10.7187C6.24219 10.8848 6.41797 11.0391 6.59961 11.1816C7.37305 11.7832 8.28516 12.166 9.25781 12.2949V14.375H7.03125C6.94531 14.375 6.875 14.4453 6.875 14.5312V15.7031C6.875 15.7891 6.94531 15.8594 7.03125 15.8594H9.25781V18.5938C9.25781 18.6797 9.32812 18.75 9.41406 18.75H10.5859C10.6719 18.75 10.7422 18.6797 10.7422 18.5938V15.8594H12.9688C13.0547 15.8594 13.125 15.7891 13.125 15.7031V14.5312C13.125 14.4453 13.0547 14.375 12.9688 14.375H10.7422V12.2949C11.9434 12.1348 13.0508 11.5898 13.9219 10.7187ZM10 10.8594C8.91406 10.8594 7.89648 10.4375 7.12695 9.66992C6.35937 8.90234 5.9375 7.88281 5.9375 6.79688C5.9375 5.71094 6.35937 4.69336 7.12695 3.92383C7.89453 3.1543 8.91406 2.73438 10 2.73438C11.0859 2.73438 12.1035 3.15625 12.873 3.92383C13.6406 4.69141 14.0625 5.71094 14.0625 6.79688C14.0625 7.88281 13.6406 8.90039 12.873 9.66992C12.1035 10.4375 11.0859 10.8594 10 10.8594Z" fill="#383838"/>
</svg>
