<svg width="40" height="40" viewBox="0 0 40 40" fill="none" xmlns="http://www.w3.org/2000/svg">
<path fill-rule="evenodd" clip-rule="evenodd" d="M19.7143 5.53571L22.3929 5L22.0497 7.40221C22.271 7.29511 22.5071 7.19766 22.7553 7.11269C24.4347 6.53761 26.0293 6.75215 26.3169 7.59189C26.6044 8.43162 25.476 9.57856 23.7965 10.1536C23.0078 10.4237 22.2378 10.5196 21.6131 10.4584L21.421 11.8034C21.8706 11.5641 22.3838 11.4286 22.9286 11.4286C24.6214 11.4286 26.0086 12.7372 26.1337 14.398C26.7034 13.8842 27.458 13.5714 28.2856 13.5714C30.0608 13.5714 31.4999 15.0105 31.4999 16.7857C31.4999 18.5609 30.0608 20 28.2856 20C27.7903 20 27.3211 19.8879 26.902 19.6878C27.1022 20.1068 27.2142 20.5761 27.2142 21.0714C27.2142 22.8466 25.7752 24.2857 24 24.2857C22.621 24.2857 21.4449 23.4174 20.9885 22.1977C20.4021 22.8234 19.5682 23.2143 18.6429 23.2143C17.2639 23.2143 16.0877 22.3459 15.6314 21.1261C15.0449 21.7518 14.211 22.1428 13.2856 22.1428C11.5104 22.1428 10.0714 20.7037 10.0714 18.9285C10.0714 17.1533 11.5104 15.7143 13.2856 15.7143C14.6647 15.7143 15.8409 16.5827 16.2972 17.8025C16.8836 17.1767 17.7176 16.7857 18.6429 16.7857C20.0219 16.7857 21.198 17.6541 21.6544 18.8738C22.2408 18.2481 23.0747 17.8572 24 17.8572C24.4953 17.8572 24.9645 17.9692 25.3836 18.1694C25.2167 17.82 25.1111 17.4357 25.0805 17.0305C24.5108 17.5444 23.7562 17.8572 22.9286 17.8572C21.5496 17.8572 20.3734 16.9887 19.9171 15.7689C19.3306 16.3947 18.4966 16.7857 17.5713 16.7857C16.1924 16.7857 15.0163 15.9174 14.5599 14.6977C13.9734 15.3234 13.1395 15.7143 12.2143 15.7143C10.4391 15.7143 9 14.2752 9 12.5C9 10.7248 10.4391 9.28574 12.2143 9.28574C13.5932 9.28574 14.7694 10.1541 15.2257 11.3738C15.8122 10.7481 16.6461 10.3572 17.5713 10.3572C18.3946 10.3572 19.1456 10.6667 19.7143 11.1757V5.53571ZM19.7143 31.7857C19.7143 33.5609 18.2752 35 16.5 35C14.7248 35 13.2857 33.5609 13.2857 31.7857C13.2857 30.0105 14.7248 28.5714 16.5 28.5714C16.833 28.5714 17.1541 28.6221 17.4562 28.7161C17.1272 28.3913 16.8679 27.996 16.7029 27.5548C16.1164 28.1805 15.2825 28.5714 14.3573 28.5714C12.5821 28.5714 11.143 27.1323 11.143 25.3571C11.143 23.5819 12.5821 22.1428 14.3573 22.1428C15.7362 22.1428 16.9123 23.0112 17.3687 24.2309C17.9551 23.6052 18.7891 23.2143 19.7143 23.2143C21.4895 23.2143 22.9286 24.6533 22.9286 26.4285C22.9286 28.2037 21.4895 29.6428 19.7143 29.6428C19.3813 29.6428 19.0601 29.5922 18.758 29.4982C19.3484 30.081 19.7143 30.8906 19.7143 31.7857Z" fill="#A171B2"/>
</svg>
