<svg width="16" height="16" viewBox="0 0 16 16" fill="none" xmlns="http://www.w3.org/2000/svg">
<circle cx="8" cy="8" r="7.5" stroke="#407D60"/>
<path d="M8.39752 5.53038C8.26383 5.53038 8.13623 5.50608 8.0147 5.45747C7.89317 5.4048 7.78785 5.33391 7.69873 5.24479C7.60961 5.15972 7.53872 5.05643 7.48606 4.9349C7.43745 4.81337 7.41314 4.68577 7.41314 4.55209C7.41314 4.4184 7.43745 4.2908 7.48606 4.16927C7.53872 4.04774 7.60961 3.9404 7.69873 3.84722C7.78785 3.75405 7.89317 3.68316 8.0147 3.63455C8.13623 3.58189 8.26383 3.55556 8.39752 3.55556C8.5312 3.55556 8.6588 3.58189 8.78033 3.63455C8.90186 3.68316 9.00921 3.75405 9.10238 3.84722C9.19555 3.9404 9.26644 4.04774 9.31505 4.16927C9.36771 4.2908 9.39404 4.4184 9.39404 4.55209C9.39404 4.68577 9.36771 4.81337 9.31505 4.9349C9.26644 5.05643 9.19555 5.15972 9.10238 5.24479C9.00921 5.33391 8.90186 5.4048 8.78033 5.45747C8.6588 5.50608 8.5312 5.53038 8.39752 5.53038ZM7.5529 12.5C7.15591 12.5 6.84196 12.3825 6.61106 12.1476C6.3518 11.8883 6.22217 11.5096 6.22217 11.0113C6.22217 10.7763 6.25458 10.5049 6.31939 10.1971L7.16401 6.20486H8.95654L8.06331 10.434C8.03091 10.5394 8.0147 10.673 8.0147 10.8351C8.0147 11.0052 8.05319 11.1247 8.13015 11.1936C8.21117 11.2624 8.3408 11.2969 8.51904 11.2969C8.64057 11.2969 8.75805 11.2705 8.87147 11.2179C8.98895 11.1612 9.0963 11.0842 9.19352 10.987C9.39202 10.7885 9.5419 10.5252 9.64317 10.1971H10.1657C9.94294 10.8249 9.66343 11.3252 9.3272 11.6979C9.04364 12.0017 8.72361 12.2205 8.36713 12.3542C8.10787 12.4514 7.83646 12.5 7.5529 12.5Z" fill="#407D60"/>
</svg>
