<svg width="40" height="40" viewBox="0 0 40 40" fill="none" xmlns="http://www.w3.org/2000/svg">
<path fill-rule="evenodd" clip-rule="evenodd" d="M16.7575 11.6819L21 8.5C22.8333 8.5 30.5 11 33 17L22.9869 17.7702C22.873 16.7739 22.0269 16 21 16C19.8954 16 19 16.8954 19 18C19 18.0257 19.0005 18.0513 19.0014 18.0768L7 19L14.3626 13.478C14.6377 13.7976 15.0452 14 15.5 14C16.3284 14 17 13.3284 17 12.5C17 12.1982 16.9109 11.9172 16.7575 11.6819ZM29 13.5C29 14.3284 28.1046 15 27 15C25.8954 15 25 14.3284 25 13.5C25 12.6716 25.8954 12 27 12C28.1046 12 29 12.6716 29 13.5Z" fill="#FFC52F"/>
<path fill-rule="evenodd" clip-rule="evenodd" d="M19.218 18.9087L7 19.7143V30L10.6816 29.7573C10.2712 29.4896 10 29.0265 10 28.5C10 27.6716 10.6716 27 11.5 27C12.3284 27 13 27.6716 13 28.5C13 28.9556 12.7966 29.3638 12.4761 29.6389L33 28.2857V22.9146C32.8435 22.9699 32.6753 23 32.5 23C31.6716 23 31 22.3284 31 21.5C31 20.6716 31.6716 20 32.5 20C32.6753 20 32.8435 20.0301 33 20.0854V18L22.8862 18.6669C22.6116 19.4435 21.8706 20 21 20C20.2227 20 19.5491 19.5565 19.218 18.9087ZM24.5 28C25.8806 28 27 26.8807 27 25.5C27 24.1193 25.8806 23 24.5 23C23.1194 23 22 24.1193 22 25.5C22 26.8807 23.1194 28 24.5 28ZM15.5 24C16.3284 24 17 23.3284 17 22.5C17 21.6716 16.3284 21 15.5 21C14.6716 21 14 21.6716 14 22.5C14 23.3284 14.6716 24 15.5 24Z" fill="#FFC52F"/>
</svg>
