<svg width="48" height="48" viewBox="0 0 48 48" fill="none" xmlns="http://www.w3.org/2000/svg">
<rect y="37" width="48" height="2" rx="1" fill="#9CC2B0"/>
<path d="M33.9506 33H14.0494C14.5511 27.9467 18.8147 24 24 24C29.1853 24 33.4489 27.9467 33.9506 33Z" fill="#9CC2B0" stroke="#9CC2B0" stroke-width="2" stroke-linecap="round"/>
<rect x="23" y="10" width="2" height="10" rx="1" fill="#9CC2B0"/>
<rect x="10.6694" y="15" width="2" height="10" rx="1" transform="rotate(-30 10.6694 15)" fill="#9CC2B0"/>
<rect width="2" height="10" rx="1" transform="matrix(0.866025 0.5 0.5 -0.866025 31.6694 23)" fill="#9CC2B0"/>
<rect x="2" y="26" width="2" height="10" rx="1" transform="rotate(-60 2 26)" fill="#9CC2B0"/>
<rect width="2" height="10" rx="1" transform="matrix(0.5 0.866025 0.866025 -0.5 35.9998 29)" fill="#9CC2B0"/>
</svg>
