<svg width="40" height="40" viewBox="0 0 40 40" fill="none" xmlns="http://www.w3.org/2000/svg">
<path fill-rule="evenodd" clip-rule="evenodd" d="M14.1732 11.3755C15.7181 10.9486 18.4062 10.4849 21.4 10.5004C24.3971 10.5158 27.6549 11.0112 30.3728 12.4628C32.4046 13.5479 34.3323 15.534 34.4895 18.1246L34.4822 18.9244C34.4272 19.6322 34.2419 20.3905 33.8897 21.1969C33.2004 22.3769 32.0445 23.2374 30.5597 23.5018C29.0629 23.7684 27.1848 23.4361 25.073 22.1268C24.8305 21.9765 24.6562 21.8054 24.4438 21.5932L24.4297 21.5791C24.224 21.3736 23.9803 21.13 23.637 20.9127C22.9226 20.4604 21.8648 20.1714 19.839 20.1714H19.8157H19.7926H19.7695H19.7465H19.7236H19.7008H19.678H19.6554H19.6328H19.6103H19.5879H19.5656H19.5434H19.5213H19.4992H19.4772H19.4553H19.4335H19.4117H19.3901H19.3685H19.347H19.3256H19.3042H19.283H19.2618H19.2407H19.2196H19.1987H19.1778H19.157H19.1363H19.1156H19.095H19.0745H19.0541H19.0337H19.0135H18.9932H18.9731H18.953H18.933H18.9131H18.8932H18.8735H18.8537H18.8341H18.8145H18.795H18.7755H18.7562H18.7369H18.7176H18.6984H18.6793H18.6603H18.6413H18.6224H18.6035H18.5847H18.566H18.5473H18.5287H18.5102H18.4917H18.4733H18.4549H18.4366H18.4184H18.4002H18.3821H18.364H18.346H18.3281H18.3102H18.2924H18.2746H18.2569H18.2392H18.2216H18.204H18.1865H18.1691H18.1517H18.1344H18.1171H18.0998H18.0827H18.0655H18.0485H18.0314H18.0144H17.9975H17.9806H17.9638H17.947H17.9303H17.9136H17.897H17.8804H17.8638H17.8473H17.8309H17.8145H17.7981H17.7818H17.7655H17.7493H17.7331H17.7169H17.7008H17.6848H17.6688H17.6528H17.6368H17.6209H17.6051H17.5893H17.5735H17.5577H17.542H17.5264H17.5108H17.4952H17.4796H17.4641H17.4486H17.4332H17.4177H17.4024H17.387H17.3717H17.3564H17.3412H17.326H17.3108H17.2956H17.2805H17.2654H17.2504H17.2353H17.2203H17.2054H17.1904H17.1755H17.1606H17.1458H17.1309H17.1161H17.1013H17.0866H17.0719H17.0572H17.0425H17.0278H17.0132H16.9986H16.984H16.9694H16.9549H16.9404H16.9259H16.9114H16.8969H16.8825H16.8681H16.8537H16.8393H16.8249H16.8106H16.7962H16.7819H16.7676H16.7534H16.7391H16.7248H16.7106H16.6964H16.6822H16.668H16.6538H16.6396H16.6255H16.6113H16.5972H16.5831H16.569H16.5549H16.5408H16.5267H16.5126H16.4986H16.4845H16.4705H16.4564H16.4424H16.4284H16.4143H16.4003H16.3863H16.3723H16.3583H16.3443H16.3303H16.3163H16.3023H16.2884H16.2744H16.2604H16.2464H16.2324H16.2184H16.2045H16.1905H16.1765H16.1625H16.1485H16.1345H16.1205H16.1066H16.0926H16.0786H16.0645H16.0505H16.0365H16.0225H16.0085H15.9944H15.9804H15.9663H15.9523H15.9382H15.9241H15.9101H15.896H15.8819H15.8677H15.8536H15.8395H15.8253H15.8112H15.797H15.7828H15.7686H15.7544H15.7402H15.726H15.7117H15.6974H15.6832H15.6689H15.6545H15.6402H15.6259H15.6115H15.5971H15.5827H15.5683H15.5538H15.5394H15.5249H15.5104H15.4958H15.4813H15.4667H15.4521H15.4375H15.4229H15.4082H15.3935H15.3788H15.3641H15.3493H15.3345H15.3197H15.3049H15.29H15.2751H15.2602H15.2453H15.2303H15.2153H15.2002H15.1852H15.1701H15.155H15.1398H15.1246H15.1094H15.0941H15.0788H15.0635H15.0482H15.0328H15.0174H15.0019H14.9864H14.9709H14.9553H14.9397H14.9241H14.9084H14.8927H14.8769H14.8612H14.8453H14.8295H14.8135H14.7976H14.7816H14.7656H14.7495H14.7334H14.7172H14.701H14.6848H14.6685H14.6522H14.6358H14.6194H14.6029H14.5864H14.5699H14.5533H14.5366H14.5199H14.5032H14.4864H14.4695H14.4526H14.4357H14.4187H14.4017H14.3846H14.3674H14.3502H14.333H14.3157H14.2983H14.2809H14.2635H14.246H14.2284H14.2108H14.1931H14.1754H14.1576H14.1397H14.1218H14.1039H14.0859H14.0678H14.0496H14.0314H14.0132H13.9949H13.9765H13.9581H13.9396H13.921H13.9024H13.8837H13.865H13.8462H13.8273H13.8084H13.7894H13.7703H13.7512H13.732H13.7127H13.6934H13.674H13.6545H13.635H13.6154H13.5957H13.576H13.5562H13.5363H13.5164H13.4963H13.4763H13.4561H13.4359H13.4156H13.3952H13.3747H13.3542H13.3336H13.3129H13.2922H13.2714H13.2505H13.2295H13.2084H13.1873H13.1661H13.1448H13.1235H13.102H13.0805H13.0589H13.0372H13.0155H12.9936H12.9717H12.9497H12.9276H12.9055H12.8832H12.8609H12.8385H12.816H12.7934H12.7707H12.7479H12.7251H12.7022H12.6792H12.6561H12.6329H12.6096H12.5862H12.5628H12.5392H12.5156H12.4919H12.4681H12.4442H12.4202H12.3961H12.3719H12.3476H12.3233H12.2988H12.2743H12.2496H12.2249H12.2H12.1751H12.1501H12.125H12.0997H12.0744H12.049H12.0235H11.9979H11.9722H11.9464H11.9205H11.8945H11.8684H11.8422H11.8158H11.7894H11.7629H11.7363H11.7096H11.6828H11.6558H11.6288H11.6017H11.5744H11.5471H11.5197H11.4921H11.4644H11.4367H11.4088H11.3808H11.3527H11.3245H11.2962H11.2678H11.2393H11.2106H11.1819H11.153H11.124H11.0949H11.0657H11.0364H11.007H10.9775H10.9478H10.918H10.8882H10.8582H10.8281H10.7978H10.7675H10.737H10.7064H10.6757H10.6449H10.614H10.5829H10.5518H10.5205H10.489H10.4575H10.4259H10.3941H10.3622H10.3302H10.298H10.2657H10.2333H10.2008H10.1682H10.1354H10.1108L10.0863 20.1738C8.49575 20.3307 7.17762 20.1223 6.22564 19.6981C5.27167 19.2731 4.72244 18.6529 4.55628 17.9904C4.3443 17.1453 4.7078 15.9894 6.21156 14.7575C7.70873 13.5311 10.2596 12.3064 14.1557 11.38L14.1645 11.3779L14.1732 11.3755ZM35.4888 18.0832C35.5055 18.3719 35.5036 18.6665 35.4818 18.9666L35.4111 26.7059L35.4104 26.7835L35.3862 26.8573C34.6032 29.2424 32.5867 30.3665 30.4576 30.5998C28.3464 30.8311 26.0417 30.2037 24.5023 29.0045C21.5086 26.6726 18.7733 26.6985 16.4858 26.7201C16.2881 26.722 16.0936 26.7238 15.9026 26.7241C11.159 27.672 8.23255 27.9102 6.43813 27.7172C5.53576 27.6201 4.87185 27.4096 4.40292 27.0843C3.91476 26.7457 3.67256 26.3065 3.58086 25.8443L3.57131 25.7961V25.747V18.1709C3.2615 16.809 3.95071 15.3169 5.57786 13.984C7.23544 12.6261 9.94511 11.3543 13.9156 10.4092C15.5475 9.9593 18.3225 9.4845 21.4052 9.50039C24.49 9.51628 27.9286 10.0237 30.8439 11.5807C33.0417 12.7545 35.3106 14.9988 35.4888 18.0832Z" fill="#E97979"/>
<path fill-rule="evenodd" clip-rule="evenodd" d="M23.846 20.325C23.3163 19.8323 22.7792 19.3328 20.2844 19.3328H12.1459C5.75221 19.9201 3.74806 14.2819 15.4208 11.6977C18.0841 11.0125 24.5921 10.2294 29.3167 12.5787C31.7267 13.777 34.1109 16.3962 32.4434 19.9201C31.1696 21.9757 28.1301 22.9235 24.4532 20.8011C24.202 20.6561 24.0244 20.4909 23.846 20.325ZM28 19C29.1046 19 30 18.3284 30 17.5C30 16.6716 29.1046 16 28 16C26.8954 16 26 16.6716 26 17.5C26 18.3284 26.8954 19 28 19Z" fill="#E97979"/>
</svg>
