<svg width="20" height="20" viewBox="0 0 20 20" fill="none" xmlns="http://www.w3.org/2000/svg">
<path d="M17.0703 2.34375H12.1484C12.084 2.34375 12.0312 2.39648 12.0312 2.46094V3.55469C12.0312 3.61914 12.084 3.67188 12.1484 3.67188H15.2813L11.3887 7.56445C10.4121 6.8125 9.2207 6.40625 7.96875 6.40625C6.4668 6.40625 5.05273 6.99219 3.99219 8.05469C2.93164 9.11719 2.34375 10.5293 2.34375 12.0312C2.34375 13.5332 2.92969 14.9473 3.99219 16.0078C5.05273 17.0703 6.4668 17.6562 7.96875 17.6562C9.4707 17.6562 10.8848 17.0703 11.9453 16.0078C13.0078 14.9473 13.5938 13.5332 13.5938 12.0312C13.5938 10.7793 13.1875 9.5918 12.4375 8.61523L16.3281 4.72461V7.85156C16.3281 7.91602 16.3809 7.96875 16.4453 7.96875H17.5391C17.6035 7.96875 17.6562 7.91602 17.6562 7.85156V2.92969C17.6562 2.60742 17.3926 2.34375 17.0703 2.34375ZM7.96875 16.1719C5.68555 16.1719 3.82812 14.3145 3.82812 12.0312C3.82812 9.74805 5.68555 7.89062 7.96875 7.89062C10.252 7.89062 12.1094 9.74805 12.1094 12.0312C12.1094 14.3145 10.252 16.1719 7.96875 16.1719Z" fill="#383838"/>
</svg>
