<svg width="48" height="48" viewBox="0 0 48 48" fill="none" xmlns="http://www.w3.org/2000/svg">
<path fill-rule="evenodd" clip-rule="evenodd" d="M31.3031 37.7156C31.6278 37.4586 31.4141 36.9484 31 36.9484C22.7158 36.9484 16 30.2327 16 21.9484C16 18.6615 17.0573 15.6215 18.8502 13.15C19.4065 12.383 18.837 11.2517 17.925 11.5085C11.621 13.284 7 19.0765 7 25.9484C7 34.2327 13.7158 40.9484 22 40.9484C25.5143 40.9484 28.7463 39.7398 31.3031 37.7156Z" fill="#407D60"/>
<path d="M30.2662 8.15105C30.4471 7.37437 31.5528 7.37437 31.7337 8.15105C31.8186 8.51577 32.1585 8.76275 32.5316 8.73081C33.3262 8.6628 33.6679 9.71444 32.9851 10.1264C32.6645 10.3199 32.5346 10.7195 32.6803 11.0645C32.9905 11.7992 32.0959 12.4491 31.4931 11.9271C31.21 11.6819 30.7899 11.6819 30.5068 11.9271C29.9039 12.4491 29.0094 11.7992 29.3196 11.0645C29.4652 10.7195 29.3354 10.3199 29.0148 10.1264C28.332 9.71444 28.6737 8.6628 29.4682 8.73081C29.8414 8.76275 30.1813 8.51577 30.2662 8.15105Z" fill="#407D60"/>
<path d="M39.7632 13.8443C39.5406 13.1586 40.468 12.707 40.8706 13.3051C41.0672 13.5972 41.4669 13.6679 41.7518 13.4611C42.3353 13.0375 43.0513 13.7799 42.6069 14.3476C42.3898 14.6249 42.4461 15.0269 42.7308 15.2339C43.314 15.6579 42.8292 16.5683 42.1519 16.3211C41.8212 16.2003 41.4562 16.378 41.3473 16.7129C41.1243 17.3985 40.1086 17.2188 40.1345 16.4982C40.1471 16.1463 39.8653 15.8542 39.5132 15.8541C38.7922 15.8538 38.6493 14.8323 39.3425 14.6342C39.6811 14.5375 39.8719 14.1792 39.7632 13.8443Z" fill="#407D60"/>
<path d="M35.7592 22.9714C35.7944 22.2513 36.8215 22.158 36.9859 22.86C37.0661 23.2029 37.4147 23.4108 37.7545 23.3184C38.4502 23.1293 38.8564 24.0774 38.2395 24.4506C37.9382 24.6329 37.8482 25.0287 38.041 25.3233C38.4359 25.9265 37.6597 26.6058 37.1141 26.1344C36.8477 25.9042 36.4435 25.9409 36.2229 26.2153C35.7711 26.7773 34.8853 26.249 35.165 25.5844C35.3016 25.2599 35.1418 24.8868 34.8126 24.7618C34.1386 24.5059 34.3673 23.5001 35.0857 23.5608C35.4366 23.5904 35.742 23.3231 35.7592 22.9714Z" fill="#407D60"/>
</svg>
