<svg width="40" height="40" viewBox="0 0 40 40" fill="none" xmlns="http://www.w3.org/2000/svg">
<path fill-rule="evenodd" clip-rule="evenodd" d="M31.704 16.2979C31.8971 15.5643 32 14.7942 32 14C32 9.02944 27.9706 5 23 5C18.9749 5 15.5669 7.64233 14.4161 11.287C13.8104 11.1004 13.1669 11 12.5 11C8.91015 11 6 13.9101 6 17.5C6 21.0899 8.91015 24 12.5 24C12.9062 24 13.3036 23.9627 13.6892 23.8915C14.8015 27.4429 16.014 32.2663 15.7105 34.9978H25.2105C25.1046 33.62 26.0365 30.9638 27.1699 27.7337C27.4163 27.0313 27.6723 26.3018 27.9292 25.5523C28.5601 25.8398 29.2614 26 30 26C32.7614 26 35 23.7614 35 21C35 18.8369 33.6265 16.9947 31.704 16.2979ZM25.8316 25.3464C24.8341 26.2386 23.5596 26.8273 22.153 26.9676L22.8203 29.4978L25.8316 25.3464ZM19.1303 26.5545C18.2961 26.2278 17.5459 25.7336 16.921 25.1133L18.2105 29.4978L19.1303 26.5545Z" fill="#98D49B"/>
</svg>
