<svg width="80" height="80" viewBox="0 0 80 80" fill="none" xmlns="http://www.w3.org/2000/svg">
<path fill-rule="evenodd" clip-rule="evenodd" d="M19 10C14.0294 10 10 14.0294 10 19V61C10 65.9706 14.0294 70 19 70H61C65.9706 70 70 65.9706 70 61V19C70 14.0294 65.9706 10 61 10H19ZM25.1767 16.3349C23.4546 16.5688 22.3245 18.229 22.7066 19.9244L23.9406 25.3986C27.0863 24.1271 32.5515 22.6906 39 22.5171V20C39 19.4477 39.4477 19 40 19C40.5523 19 41 19.4477 41 20V22.5049C45.7487 22.5756 50.9314 23.3677 56.058 25.4048L57.2934 19.9244C57.6755 18.229 56.5454 16.5688 54.8233 16.3349C50.9198 15.8047 44.2885 15 40 15C35.7115 15 29.0802 15.8047 25.1767 16.3349ZM39 25.5187C32.6685 25.6991 27.3661 27.1729 24.6104 28.3703L24.773 29.0916C25.1357 30.7008 26.7311 31.7212 28.3553 31.4334C31.0694 30.9523 35.2433 30.3244 39 30.2243V25.5187ZM41 30.2243V25.506C45.5447 25.5788 50.5118 26.3572 55.3895 28.3707L55.227 29.0916C54.8643 30.7008 53.2689 31.7212 51.6447 31.4334C48.9306 30.9523 44.7567 30.3244 41 30.2243Z" fill="#407D60"/>
</svg>
