<svg width="150" height="150" viewBox="0 0 150 150" fill="none" xmlns="http://www.w3.org/2000/svg">
<path fill-rule="evenodd" clip-rule="evenodd" d="M85 43H80V33C80 19.2 68.8 8 55 8C41.2 8 30 19.2 30 33V43H25C19.5 43 15 47.5 15 53V103C15 108.5 19.5 113 25 113H66.6801C69.938 129.532 84.5129 142 102 142C121.882 142 138 125.882 138 106C138 86.1178 121.882 70 102 70C99.6048 70 97.2643 70.2339 95 70.6801V53C95 47.5 90.5 43 85 43ZM45 68C45 71.6819 47.0167 74.9157 50 76.6513V93C50 95.7614 52.2386 98 55 98C57.7614 98 60 95.7614 60 93V76.6513C62.9833 74.9157 65 71.6819 65 68C65 62.5 60.5 58 55 58C49.5 58 45 62.5 45 68ZM70.5 33V43H39.5V33C39.5 24.45 46.45 17.5 55 17.5C63.55 17.5 70.5 24.45 70.5 33ZM132 106C132 122.569 118.569 136 102 136C85.4315 136 72 122.569 72 106C72 89.4315 85.4315 76 102 76C118.569 76 132 89.4315 132 106ZM93.8492 115.163L117.891 91.1213C119.062 89.9497 120.962 89.9497 122.134 91.1213C123.305 92.2929 123.305 94.1924 122.134 95.364L95.9857 121.512L95.9706 121.527L95.9703 121.527C94.9452 122.552 93.3629 122.68 92.1985 121.911C92.0322 121.801 91.8744 121.673 91.7279 121.527L81.1214 110.92C79.9498 109.749 79.9498 107.849 81.1214 106.678C82.2929 105.506 84.1924 105.506 85.364 106.678L93.8492 115.163Z" fill="#407D60"/>
</svg>
