<svg width="95" height="22" viewBox="0 0 95 22" fill="none" xmlns="http://www.w3.org/2000/svg">
<path d="M41.128 0.0120004C41.128 0.044 41.32 0.316 41.704 0.828L42.232 1.644L42.136 1.788C42.072 1.852 41.912 1.948 41.656 2.076C41.464 2.204 41.16 2.348 40.744 2.508C40.296 2.668 39.816 2.812 39.304 2.94C38.792 3.068 38.392 3.164 38.104 3.228L37.72 3.276V6.732V10.14H40.36H43V10.62V11.1H40.36H37.72L37.672 15.228C37.672 16.956 37.664 18.1 37.648 18.66C37.632 19.22 37.608 19.564 37.576 19.692C37.512 19.916 37.448 20.092 37.384 20.22C37.288 20.412 37.192 20.556 37.096 20.652C37 20.812 36.84 20.94 36.616 21.036C36.424 21.132 36.2 21.18 35.944 21.18H35.608V16.14L35.56 11.1H33.064H30.52V10.62V10.14H33.064H35.56V6.828V3.516H34.648C34.072 3.516 33.56 3.5 33.112 3.468C32.696 3.436 32.28 3.388 31.864 3.324C31.416 3.228 31.128 3.164 31 3.132C30.872 3.1 30.808 3.004 30.808 2.844L30.856 2.556H31.336C31.688 2.524 32.168 2.46 32.776 2.364C33.352 2.3 34.008 2.204 34.744 2.076C35.416 1.948 36.104 1.804 36.808 1.644C37.448 1.484 38.056 1.308 38.632 1.116C39.144 0.956 39.624 0.763999 40.072 0.539999C40.552 0.315999 40.84 0.171999 40.936 0.107999C41.032 0.0119994 41.096 -0.0200002 41.128 0.0120004ZM25.336 1.836C26.04 1.836 26.392 1.876 26.392 1.956C26.392 2.036 26.616 2.076 27.064 2.076L27.736 2.124V1.98V1.836H28.792H29.848V8.076C29.848 12.236 29.816 14.444 29.752 14.7C29.688 14.956 29.608 15.18 29.512 15.372C29.448 15.532 29.336 15.692 29.176 15.852C29.048 15.98 28.888 16.092 28.696 16.188C28.504 16.284 28.312 16.332 28.12 16.332H27.784V15.9L27.736 15.516H26.872H26.008L25.816 15.804C25.656 15.964 25.472 16.092 25.264 16.188C25.056 16.284 24.84 16.332 24.616 16.332H24.28V9.084V1.836H25.336ZM26.392 3.036V8.652C26.392 12.364 26.376 14.284 26.344 14.412L26.296 14.604H27.016H27.736V8.796V3.036H27.064H26.392ZM31.528 4.86C31.528 4.764 31.536 4.708 31.552 4.692C31.568 4.676 31.6 4.676 31.648 4.692C31.696 4.708 31.832 4.764 32.056 4.86C32.216 4.956 32.408 5.084 32.632 5.244C32.856 5.404 33.12 5.644 33.424 5.964C33.728 6.284 33.992 6.604 34.216 6.924C34.408 7.212 34.616 7.564 34.84 7.98C35 8.332 35.072 8.532 35.056 8.58C35.04 8.628 34.664 8.764 33.928 8.988L32.824 9.324L32.776 8.604C32.744 8.188 32.688 7.812 32.608 7.476C32.528 7.14 32.448 6.868 32.368 6.66C32.288 6.452 32.184 6.22 32.056 5.964C31.96 5.74 31.848 5.516 31.72 5.292C31.592 5.1 31.528 4.956 31.528 4.86ZM41.752 4.668C41.816 4.668 41.832 4.732 41.8 4.86C41.768 4.988 41.688 5.148 41.56 5.34C41.432 5.532 41.32 5.724 41.224 5.916C41.128 6.108 41.032 6.348 40.936 6.636C40.84 6.892 40.744 7.212 40.648 7.596C40.584 7.948 40.552 8.332 40.552 8.748V9.324L40.408 9.276C40.376 9.276 39.992 9.164 39.256 8.94C38.616 8.748 38.28 8.636 38.248 8.604C38.216 8.572 38.248 8.444 38.344 8.22C38.44 8.028 38.584 7.756 38.776 7.404C38.968 7.084 39.192 6.764 39.448 6.444C39.672 6.156 39.896 5.9 40.12 5.676C40.376 5.452 40.584 5.292 40.744 5.196C40.936 5.068 41.128 4.956 41.32 4.86C41.544 4.764 41.688 4.7 41.752 4.668Z" fill="white"/>
<path d="M53.112 0V0.144C53.112 0.239999 53.064 0.479999 52.968 0.863999C52.84 1.28 52.712 1.664 52.584 2.016C52.424 2.368 52.28 2.704 52.152 3.024C51.992 3.312 51.936 3.472 51.984 3.504C52.032 3.536 52.056 6.192 52.056 11.472C52.056 16.752 52.032 19.504 51.984 19.728C51.936 19.952 51.88 20.112 51.816 20.208C51.752 20.336 51.656 20.48 51.528 20.64C51.4 20.8 51.224 20.928 51 21.024C50.776 21.152 50.552 21.216 50.328 21.216H49.992V13.632C49.992 8.608 49.976 6.096 49.944 6.096C49.944 6.096 49.8 6.208 49.512 6.432C49.224 6.624 48.96 6.784 48.72 6.912C48.48 7.04 48.216 7.16 47.928 7.272C47.64 7.384 47.48 7.44 47.448 7.44C47.416 7.44 47.4 7.416 47.4 7.368C47.4 7.32 47.4349 7.24375 47.88 6.576C48.136 6.192 48.424 5.696 48.744 5.088C49.064 4.512 49.336 3.968 49.56 3.456C49.816 2.912 50.008 2.456 50.136 2.088C50.264 1.72 50.376 1.36 50.472 1.008C50.536 0.656 50.584 0.4 50.616 0.24L50.664 0H51.864H53.112ZM63.24 0.576L63.288 1.44V2.256H64.008H64.776V2.064V1.92L65.832 1.872C66.504 1.872 66.84 1.872 66.84 1.872C66.872 1.904 66.888 2.448 66.888 3.504L66.936 5.136H67.368L67.8 5.184V5.616V6.096H67.32H66.888V6.672C66.888 7.056 66.888 7.344 66.888 7.536C66.856 7.728 66.808 7.92 66.744 8.112C66.68 8.336 66.616 8.528 66.552 8.688C66.456 8.816 66.336 8.952 66.192 9.096C66.048 9.24 65.896 9.36 65.736 9.456C65.576 9.52 65.384 9.552 65.16 9.552H64.776V9.264V8.928H64.008H63.288V9.888V10.848H64.488H65.688V11.328V11.808H64.488H63.288V12.72V13.68H65.16H67.032V14.16V14.64H65.16H63.288V15.168C63.288 15.552 63.272 15.872 63.24 16.128C63.208 16.352 63.128 16.576 63 16.8C62.904 16.992 62.808 17.152 62.712 17.28C62.616 17.408 62.464 17.528 62.256 17.64C62.048 17.752 61.816 17.808 61.56 17.808H61.176V16.224V14.64H59.928H58.728V14.16V13.68H59.928H61.176V12.72V11.808H59.736H58.296V11.328V10.848H59.736H61.176V9.888V8.928H59.736H58.296V8.496V8.016H59.736H61.176V7.056V6.096H59.736L58.344 6.048L58.296 5.616V5.184H59.736H61.176V4.176V3.168H60.168H59.16V2.736V2.256H60.168H61.176V1.392V0.576H62.232H63.24ZM55.992 1.68C57.4 1.68 58.104 1.688 58.104 1.704C58.104 1.72 58.008 2.016 57.816 2.592C57.272 4.128 56.904 5.168 56.712 5.712L55.896 8.016H56.808H57.72V12.144C57.72 13.616 57.712 14.704 57.696 15.408C57.68 16.112 57.656 16.512 57.624 16.608C57.592 16.864 57.64 17.072 57.768 17.232C57.864 17.392 57.992 17.536 58.152 17.664C58.312 17.792 58.504 17.92 58.728 18.048C58.92 18.144 59.16 18.224 59.448 18.288C59.736 18.352 61.192 18.384 63.816 18.384H68.1837L68.336 18.7L68.8 19.728H63.816C61.16 19.696 59.656 19.648 59.304 19.584C58.952 19.488 58.664 19.408 58.44 19.344C58.216 19.248 57.992 19.136 57.768 19.008C57.544 18.88 57.336 18.704 57.144 18.48L56.808 18.144L56.616 18.288C56.456 18.448 56.288 18.576 56.112 18.672C55.936 18.768 55.704 18.88 55.416 19.008C55.16 19.104 54.888 19.2 54.6 19.296C54.28 19.36 53.992 19.408 53.736 19.44L53.4 19.488V18.96V18.384H53.64C53.832 18.384 54.024 18.352 54.216 18.288C54.408 18.224 54.592 18.12 54.768 17.976C54.944 17.832 55.104 17.616 55.248 17.328C55.392 17.04 55.472 16.832 55.488 16.704C55.504 16.576 55.432 16.384 55.272 16.128C55.112 15.872 54.936 15.552 54.744 15.168C54.52 14.784 54.312 14.368 54.12 13.92C53.896 13.472 53.704 13.024 53.544 12.576C53.416 12.192 53.304 11.792 53.208 11.376C53.112 11.024 53.072 10.824 53.088 10.776C53.104 10.728 53.152 10.704 53.232 10.704C53.312 10.704 53.416 10.864 53.544 11.184C53.64 11.504 53.832 11.92 54.12 12.432C54.376 13.008 54.648 13.488 54.936 13.872C55.224 14.288 55.4 14.544 55.464 14.64L55.608 14.832V11.904V8.928H54.696H53.784L54.408 7.152C55.08 5.2 55.448 4.16 55.512 4.032C55.8 3.168 55.944 2.704 55.944 2.64C55.944 2.608 55.608 2.592 54.936 2.592H53.88V2.112V1.68H55.992ZM63.288 5.184H64.776V3.168H63.288V5.184ZM63.288 8.016H64.776V6.096H63.288V8.016Z" fill="white"/>
<path d="M86.984 0V0.24C86.952 0.368 86.904 0.528 86.84 0.719999C86.776 0.912 86.68 1.088 86.552 1.248L86.408 1.536H90.104H93.848L93.896 2.016V2.448H86.264H78.632L78.584 7.968V13.536L78.44 14.208C78.344 14.592 78.232 14.992 78.104 15.408C77.976 15.792 77.816 16.144 77.624 16.464C77.464 16.816 77.288 17.152 77.096 17.472C76.872 17.76 76.616 18.048 76.328 18.336C76.04 18.624 75.784 18.848 75.56 19.008C75.304 19.2 75.032 19.36 74.744 19.488C74.456 19.648 74.16 19.776 73.856 19.872C73.552 19.968 73.4 20.016 73.4 20.016C73.4 20.016 73.432 19.912 73.496 19.704C73.56 19.496 73.696 19.344 73.904 19.248C74.112 19.152 74.328 19.016 74.552 18.84C74.776 18.664 74.984 18.464 75.176 18.24C75.368 18.016 75.544 17.76 75.704 17.472C75.864 17.184 75.992 16.864 76.088 16.512C76.216 16.16 76.296 15.792 76.328 15.408C76.392 14.992 76.424 12.576 76.424 8.16V1.536H80.552H84.632V0.816C84.632 0.303999 84.648 0.0479994 84.68 0.0479994C84.712 0.0159998 85.112 0 85.88 0H86.984ZM87.032 2.976V3.936V4.848H89.624H92.168V5.28C92.168 5.6 92.144 5.768 92.096 5.784C92.048 5.8 92.024 6.112 92.024 6.72V7.584H93.32H94.616V8.064V8.544H93.32H92.024V9.12C91.992 9.504 91.928 9.824 91.832 10.08L91.736 10.464H91.976H92.216L92.168 10.896V11.328L89.624 11.376H87.032V14.64C87.032 16.784 87.016 18.984 86.984 19.24C86.92 19.496 86.84 19.72 86.744 19.912C86.648 20.104 86.504 20.28 86.312 20.44C86.152 20.6 85.976 20.712 85.784 20.776C85.592 20.84 85.416 20.856 85.256 20.824H85.016L84.968 15.6V11.376H82.424H79.88V10.896V10.464H82.424H84.968V9.504V8.544H82.04H79.112V8.064V7.584H82.04H84.968V6.672V5.808H82.424H79.88V5.328V4.848H82.424H84.968V3.936V2.976H86.024H87.032ZM79.736 11.712C79.864 11.744 80.088 11.792 80.408 11.856C80.664 11.92 80.936 12.016 81.224 12.144C81.512 12.272 81.768 12.4 81.992 12.528C82.216 12.656 82.424 12.816 82.616 13.008C82.84 13.2 82.984 13.36 83.048 13.488C83.144 13.616 83.16 13.696 83.096 13.728C83.032 13.792 82.808 13.984 82.424 14.304C82.008 14.624 81.784 14.784 81.752 14.784C81.72 14.784 81.704 14.752 81.704 14.688C81.704 14.624 81.64 14.464 81.512 14.208C81.416 13.952 81.288 13.728 81.128 13.536C80.968 13.28 80.792 13.04 80.6 12.816C80.344 12.56 80.096 12.344 79.856 12.168C79.616 11.992 79.496 11.872 79.496 11.808C79.496 11.744 79.576 11.712 79.736 11.712ZM92.168 11.808C92.168 11.84 92.272 12.104 92.48 12.6C92.688 13.096 92.792 13.36 92.792 13.392C92.792 13.424 92.696 13.44 92.504 13.44C92.312 13.44 92.104 13.472 91.88 13.536C91.656 13.568 91.432 13.616 91.208 13.68C90.984 13.744 90.736 13.84 90.464 13.968C90.192 14.096 89.928 14.256 89.672 14.448C89.416 14.608 89.264 14.68 89.216 14.664C89.168 14.648 89.192 14.544 89.288 14.352C89.352 14.192 89.472 13.984 89.648 13.728C89.824 13.472 90.008 13.232 90.2 13.008C90.392 12.752 90.6 12.544 90.824 12.384C91.048 12.224 91.272 12.08 91.496 11.952C91.72 11.856 91.88 11.8 91.976 11.784C92.072 11.768 92.136 11.776 92.168 11.808ZM84.152 14.832C84.344 14.832 84.424 14.848 84.392 14.88C84.392 14.912 84.136 15.232 83.624 15.84C83.08 16.48 82.712 16.88 82.52 17.04C82.328 17.232 82.008 17.472 81.56 17.76C81.112 18.048 80.712 18.304 80.36 18.528C79.976 18.72 79.496 18.976 78.92 19.296C78.312 19.616 77.976 19.744 77.912 19.68C77.816 19.584 77.768 19.536 77.768 19.536C77.736 19.536 78.048 19.216 78.704 18.576C79.36 17.936 79.896 17.392 80.312 16.944C80.76 16.432 81.128 15.968 81.416 15.552L81.944 14.88H82.904C83.64 14.848 84.056 14.832 84.152 14.832ZM87.848 14.832C88.04 14.864 88.376 14.944 88.856 15.072C89.368 15.2 89.848 15.344 90.296 15.504C90.744 15.664 91.192 15.856 91.64 16.08C92.056 16.304 92.44 16.536 92.792 16.776C93.144 17.016 93.432 17.232 93.656 17.424L93.992 17.76L93.224 18.48C92.712 18.992 92.44 19.248 92.408 19.248C92.376 19.248 92.264 19.088 92.072 18.768C91.848 18.48 91.576 18.16 91.256 17.808C90.904 17.456 90.568 17.136 90.248 16.848C89.928 16.592 89.592 16.352 89.24 16.128C88.888 15.872 88.52 15.648 88.136 15.456C87.88 15.328 87.728 15.24 87.68 15.192C87.632 15.144 87.608 15.072 87.608 14.976V14.784L87.848 14.832ZM87.032 7.584H89.96V5.808H87.032V7.584ZM87.032 10.464H89.96V8.544H87.032V10.464Z" fill="white"/>
<path fill-rule="evenodd" clip-rule="evenodd" d="M9.35952 1.28799V1H8.49552H7.63153V6.80799V12.568H7.82353C7.95153 12.568 8.07952 12.536 8.20752 12.472C8.30352 12.44 8.41552 12.36 8.54352 12.232C8.67152 12.072 8.78352 11.896 8.87952 11.704L9.02352 11.368H10.0795H11.1835V15.544V20.72H11.5195C11.7435 20.72 11.9035 20.696 11.9995 20.648C12.0955 20.6 12.2075 20.504 12.3355 20.36C12.4635 20.216 12.5915 20.04 12.7195 19.832C12.8475 19.624 12.9755 19.376 13.1035 19.088L13.2475 18.656V14.488V11.368H14.2075H15.1195V11.944L15.1675 12.52L15.3595 12.568C15.4875 12.568 15.6315 12.544 15.7915 12.496C15.9515 12.448 16.1115 12.336 16.2715 12.16C16.4315 11.984 16.5835 11.768 16.7275 11.512C16.8715 11.256 16.9835 10.992 17.0635 10.72C17.1435 10.448 17.1835 8.75999 17.1835 5.65599V1H16.1755H15.1195V1.28799V1.528H12.2395H9.35952V1.28799ZM13.2955 2.43999C13.3275 2.408 13.6315 2.39199 14.2075 2.39199H15.1195V4.12V5.896H14.2075H13.2475V4.168C13.2475 3.016 13.2635 2.43999 13.2955 2.43999ZM9.35952 8.29599V6.75999H10.2715L11.1355 6.80799L11.1835 8.63199V10.456H10.2235H9.31152L9.35952 10.168V8.29599ZM13.2955 6.80799C13.3275 6.77599 13.6315 6.75999 14.2075 6.75999L15.0715 6.80799L15.1195 8.63199V10.456H14.2075H13.2475V8.63199C13.2475 7.44799 13.2635 6.83999 13.2955 6.80799ZM11.1835 5.896H9.35952V2.39199H11.1835V5.896ZM1.056 1.21608C1.76 1.21608 2.112 1.25608 2.112 1.33608C2.112 1.41608 2.336 1.45608 2.784 1.45608L3.456 1.50408V1.36008V1.21608H4.512H5.568V7.45608C5.568 11.6161 5.536 13.8241 5.472 14.0801C5.408 14.3361 5.328 14.5601 5.232 14.7521C5.168 14.9121 5.056 15.0721 4.896 15.2321C4.768 15.3601 4.608 15.4721 4.416 15.5681C4.224 15.6641 4.032 15.7121 3.84 15.7121H3.504V15.2801L3.456 14.8961H2.592H1.728L1.536 15.1841C1.376 15.3441 1.192 15.4721 0.984001 15.5681C0.776001 15.6641 0.56 15.7121 0.336 15.7121H0V8.46408V1.21608H1.056ZM3.43002 2.41208H2.10002V13.9121H3.43002V2.41208Z" fill="white"/>
</svg>
