<svg width="150" height="150" viewBox="0 0 150 150" fill="none" xmlns="http://www.w3.org/2000/svg">
<path fill-rule="evenodd" clip-rule="evenodd" d="M75 35C75 48.8071 63.8071 60 50 60C36.1929 60 25 48.8071 25 35C25 21.1929 36.1929 10 50 10C63.8071 10 75 21.1929 75 35ZM30.0065 56.0062C20.2035 56.25 11.9883 63.5875 10.6858 73.3567L8.01909 93.3567C6.42046 105.346 15.7479 116 27.8436 116H67.4071C71.7404 131.017 85.5876 142 102 142C121.882 142 138 125.882 138 106C138 86.1178 121.882 70 102 70C97.4751 70 93.1451 70.8348 89.1557 72.3589C87.4454 63.0918 79.4598 56.2416 69.9935 56.0062C64.7909 60.9595 57.7505 64 50 64C42.2495 64 35.2091 60.9595 30.0065 56.0062ZM102 136C118.569 136 132 122.569 132 106C132 89.4315 118.569 76 102 76C85.4315 76 72 89.4315 72 106C72 122.569 85.4315 136 102 136ZM80.8787 110.678L91.4852 121.284C91.5036 121.303 91.522 121.321 91.5407 121.338C91.6713 121.462 91.8103 121.573 91.9559 121.669C93.1203 122.438 94.7028 122.309 95.7279 121.284L95.7401 121.272L121.891 95.1213C123.062 93.9497 123.062 92.0503 121.891 90.8787C120.719 89.7071 118.82 89.7071 117.648 90.8787L93.6066 114.92L85.1213 106.435C83.9497 105.263 82.0503 105.263 80.8787 106.435C79.7071 107.607 79.7071 109.506 80.8787 110.678Z" fill="#407D60"/>
</svg>
