<svg width="150" height="150" viewBox="0 0 150 150" fill="none" xmlns="http://www.w3.org/2000/svg">
<mask id="path-1-inside-1" fill="white">
<path fill-rule="evenodd" clip-rule="evenodd" d="M33.4482 22C32.3437 22 31.4482 22.8954 31.4482 24L31.4483 86.8276C29.1383 86.8276 27.0936 87.9632 25.8421 89.7067C25.4241 89.6276 24.9928 89.5862 24.5518 89.5862C21.7049 89.5862 19.2608 91.3113 18.2079 93.7732C14.7888 94.1815 12.1379 97.0916 12.1379 100.621C12.1379 103.957 14.5073 106.74 17.6553 107.379V108.897H31.4482V119.31C31.4482 120.415 32.3437 121.31 33.4482 121.31L59.0344 121.31C59.0344 132.737 68.2975 142 79.7241 142C88.4034 142 95.8345 136.656 98.9061 129.078C102.126 131.146 105.958 132.345 110.069 132.345C121.495 132.345 130.758 123.082 130.758 111.655C130.758 101.646 123.651 93.2964 114.207 91.3794V24C114.207 22.8954 113.311 22 112.207 22H33.4482Z"/>
</mask>
<path d="M31.4482 24H26.4482V24L31.4482 24ZM31.4483 86.8276V91.8276H36.4483L36.4483 86.8276H31.4483ZM25.8421 89.7067L24.9123 94.6195L28.0447 95.2123L29.9038 92.6225L25.8421 89.7067ZM18.2079 93.7732L18.8009 98.7379L21.6693 98.3953L22.8052 95.7393L18.2079 93.7732ZM17.6553 107.379H22.6553V103.292L18.6499 102.479L17.6553 107.379ZM17.6553 108.897H12.6553V113.897H17.6553V108.897ZM31.4482 108.897H36.4482V103.897H31.4482V108.897ZM33.4482 121.31V126.31H33.4482L33.4482 121.31ZM59.0344 121.31H64.0344V116.31H59.0344L59.0344 121.31ZM98.9061 129.078L101.607 124.871L96.5362 121.615L94.2723 127.2L98.9061 129.078ZM114.207 91.3794H109.207V95.4664L113.212 96.2795L114.207 91.3794ZM36.4482 24C36.4482 25.6568 35.1051 27 33.4482 27V17C29.5822 17 26.4482 20.134 26.4482 24H36.4482ZM36.4483 86.8276L36.4482 24L26.4482 24L26.4483 86.8276H36.4483ZM29.9038 92.6225C30.2565 92.1312 30.8169 91.8276 31.4483 91.8276V81.8276C27.4598 81.8276 23.9307 83.7953 21.7803 86.7908L29.9038 92.6225ZM24.5518 94.5862C24.6792 94.5862 24.7993 94.5981 24.9123 94.6195L26.7718 84.7939C26.0489 84.6571 25.3063 84.5862 24.5518 84.5862V94.5862ZM22.8052 95.7393C23.099 95.0521 23.7767 94.5862 24.5518 94.5862V84.5862C19.633 84.5862 15.4226 87.5704 13.6107 91.8071L22.8052 95.7393ZM17.1379 100.621C17.1379 99.6538 17.8658 98.8496 18.8009 98.7379L17.6149 88.8084C11.7117 89.5135 7.13794 94.5293 7.13794 100.621H17.1379ZM18.6499 102.479C17.7863 102.304 17.1379 101.532 17.1379 100.621H7.13794C7.13794 106.382 11.2283 111.177 16.6607 112.279L18.6499 102.479ZM22.6553 108.897V107.379H12.6553V108.897H22.6553ZM31.4482 103.897H17.6553V113.897H31.4482V103.897ZM36.4482 119.31V108.897H26.4482V119.31H36.4482ZM33.4482 116.31C35.1051 116.31 36.4482 117.653 36.4482 119.31H26.4482C26.4482 123.176 29.5823 126.31 33.4482 126.31V116.31ZM59.0344 116.31L33.4482 116.31L33.4482 126.31L59.0344 126.31L59.0344 116.31ZM79.7241 137C71.0589 137 64.0344 129.975 64.0344 121.31H54.0344C54.0344 135.498 65.5361 147 79.7241 147V137ZM94.2723 127.2C91.9393 132.955 86.298 137 79.7241 137V147C90.5088 147 99.7298 140.356 103.54 130.956L94.2723 127.2ZM110.069 127.345C106.944 127.345 104.046 126.436 101.607 124.871L96.2048 133.286C100.207 135.855 104.972 137.345 110.069 137.345V127.345ZM125.758 111.655C125.758 120.32 118.734 127.345 110.069 127.345V137.345C124.257 137.345 135.758 125.843 135.758 111.655H125.758ZM113.212 96.2795C120.372 97.7328 125.758 104.071 125.758 111.655H135.758C135.758 99.221 126.93 88.8601 115.202 86.4793L113.212 96.2795ZM109.207 24V91.3794H119.207V24H109.207ZM112.207 27C110.55 27 109.207 25.6569 109.207 24H119.207C119.207 20.134 116.073 17 112.207 17V27ZM33.4482 27H112.207V17H33.4482V27Z" fill="#407D60" mask="url(#path-1-inside-1)"/>
<rect x="46.6206" y="52.3448" width="52.4138" height="4.13793" rx="2" fill="#407D60"/>
<rect x="46.6206" y="45.4483" width="52.4138" height="4.13793" rx="2" fill="#407D60"/>
<rect x="46.6206" y="59.2414" width="35.8621" height="4.13793" rx="2" fill="#407D60"/>
<rect x="70.0688" y="118.552" width="19.3103" height="5.51724" rx="1" fill="#407D60"/>
<circle cx="110.069" cy="111.655" r="18.1897" stroke="#407D60" stroke-width="5"/>
<mask id="path-8-inside-2" fill="white">
<path fill-rule="evenodd" clip-rule="evenodd" d="M110.069 132.345C121.495 132.345 130.758 123.082 130.758 111.655C130.758 100.229 121.495 90.9655 110.069 90.9655C101.389 90.9655 93.9583 96.3099 90.8868 103.887C87.6664 101.82 83.8353 100.621 79.7241 100.621C68.2975 100.621 59.0344 109.884 59.0344 121.31C59.0344 132.737 68.2975 142 79.7241 142C88.4034 142 95.8345 136.656 98.9061 129.078C102.126 131.146 105.958 132.345 110.069 132.345Z"/>
</mask>
<path d="M90.8868 103.887L88.1855 108.095L93.2567 111.351L95.5206 105.766L90.8868 103.887ZM98.9061 129.078L101.607 124.871L96.5362 121.615L94.2723 127.2L98.9061 129.078ZM125.758 111.655C125.758 120.32 118.734 127.345 110.069 127.345V137.345C124.257 137.345 135.758 125.843 135.758 111.655H125.758ZM110.069 95.9655C118.734 95.9655 125.758 102.99 125.758 111.655H135.758C135.758 97.4672 124.257 85.9655 110.069 85.9655V95.9655ZM95.5206 105.766C97.8536 100.01 103.495 95.9655 110.069 95.9655V85.9655C99.2841 85.9655 90.0631 92.6096 86.253 102.009L95.5206 105.766ZM79.7241 105.621C82.8492 105.621 85.7469 106.529 88.1855 108.095L93.5881 99.6798C89.5859 97.1104 84.8213 95.6207 79.7241 95.6207V105.621ZM64.0344 121.31C64.0344 112.645 71.0589 105.621 79.7241 105.621V95.6207C65.5361 95.6207 54.0344 107.122 54.0344 121.31H64.0344ZM79.7241 137C71.0589 137 64.0344 129.975 64.0344 121.31H54.0344C54.0344 135.498 65.5361 147 79.7241 147V137ZM94.2723 127.2C91.9393 132.955 86.2981 137 79.7241 137V147C90.5088 147 99.7298 140.356 103.54 130.956L94.2723 127.2ZM110.069 127.345C106.944 127.345 104.046 126.436 101.607 124.871L96.2048 133.286C100.207 135.855 104.972 137.345 110.069 137.345V127.345Z" fill="#407D60" mask="url(#path-8-inside-2)"/>
<rect x="100.414" y="108.897" width="19.3103" height="5.51724" rx="1" fill="#407D60"/>
<rect x="112.828" y="102" width="19.3103" height="5.51724" rx="1" transform="rotate(90 112.828 102)" fill="#407D60"/>
<mask id="path-12-inside-3" fill="white">
<path fill-rule="evenodd" clip-rule="evenodd" d="M17.6553 107.379C14.5073 106.74 12.1379 103.957 12.1379 100.621C12.1379 97.0916 14.7888 94.1815 18.2079 93.7732C19.2608 91.3113 21.7049 89.5862 24.5518 89.5862C24.9928 89.5862 25.4241 89.6276 25.8421 89.7067C27.0936 87.9632 29.1383 86.8276 31.4483 86.8276C32.7045 86.8276 33.8822 87.1634 34.8966 87.7502C35.911 87.1634 37.0888 86.8276 38.3449 86.8276C40.3323 86.8276 42.1233 87.6682 43.3818 89.0132C44.3475 88.4985 45.4501 88.2069 46.6207 88.2069C49.9577 88.2069 52.7411 90.5769 53.3796 93.7255C53.4254 93.7246 53.4712 93.7241 53.5172 93.7241C57.326 93.7241 60.4137 96.8118 60.4137 100.621C60.4137 104.43 57.3261 107.517 53.5173 107.517V108.897H17.6553V107.379Z"/>
</mask>
<path d="M17.6553 107.379H22.6553V103.292L18.6499 102.479L17.6553 107.379ZM18.2079 93.7732L18.8009 98.7379L21.6693 98.3953L22.8052 95.7393L18.2079 93.7732ZM25.8421 89.7067L24.9123 94.6195L28.0447 95.2123L29.9038 92.6225L25.8421 89.7067ZM34.8966 87.7502L32.3929 92.0783L34.8966 93.5266L37.4003 92.0783L34.8966 87.7502ZM43.3818 89.0132L39.7308 92.4294L42.3501 95.2288L45.7334 93.4257L43.3818 89.0132ZM53.3796 93.7255L48.4793 94.7191L49.3081 98.8061L53.4775 98.7245L53.3796 93.7255ZM53.5173 107.517L53.5172 102.517L48.5173 102.517V107.517H53.5173ZM53.5173 108.897V113.897H58.5173V108.897H53.5173ZM17.6553 108.897H12.6553V113.897H17.6553V108.897ZM18.6499 102.479C17.7863 102.304 17.1379 101.532 17.1379 100.621H7.13794C7.13794 106.382 11.2283 111.177 16.6607 112.279L18.6499 102.479ZM17.1379 100.621C17.1379 99.6538 17.8658 98.8496 18.8009 98.7379L17.6149 88.8084C11.7117 89.5135 7.13794 94.5293 7.13794 100.621H17.1379ZM22.8052 95.7393C23.099 95.0521 23.7767 94.5862 24.5518 94.5862V84.5862C19.633 84.5862 15.4226 87.5704 13.6107 91.8071L22.8052 95.7393ZM24.5518 94.5862C24.6793 94.5862 24.7993 94.5981 24.9123 94.6195L26.7718 84.7939C26.0489 84.6571 25.3063 84.5862 24.5518 84.5862V94.5862ZM29.9038 92.6225C30.2565 92.1312 30.8169 91.8276 31.4483 91.8276V81.8276C27.4598 81.8276 23.9307 83.7953 21.7803 86.7908L29.9038 92.6225ZM31.4483 91.8276C31.802 91.8276 32.1191 91.9198 32.3929 92.0783L37.4003 83.4222C35.6453 82.407 33.6069 81.8276 31.4483 81.8276V91.8276ZM37.4003 92.0783C37.6742 91.9198 37.9912 91.8276 38.3449 91.8276V81.8276C36.1863 81.8276 34.1479 82.407 32.3929 83.4222L37.4003 92.0783ZM38.3449 91.8276C38.8917 91.8276 39.3782 92.0525 39.7308 92.4294L47.0328 85.597C44.8684 83.2839 41.7728 81.8276 38.3449 81.8276V91.8276ZM45.7334 93.4257C45.993 93.2874 46.29 93.2069 46.6207 93.2069V83.2069C44.6101 83.2069 42.7021 83.7097 41.0302 84.6007L45.7334 93.4257ZM46.6207 93.2069C47.5326 93.2069 48.3042 93.8554 48.4793 94.7191L58.2799 92.7318C57.1781 87.2984 52.3828 83.2069 46.6207 83.2069V93.2069ZM53.4775 98.7245C53.4907 98.7243 53.504 98.7241 53.5172 98.7241V88.7241C53.4385 88.7241 53.36 88.7249 53.2818 88.7264L53.4775 98.7245ZM53.5172 98.7241C54.5646 98.7241 55.4137 99.5733 55.4137 100.621H65.4137C65.4137 94.0504 60.0875 88.7241 53.5172 88.7241V98.7241ZM55.4137 100.621C55.4137 101.668 54.5646 102.517 53.5172 102.517L53.5174 112.517C60.0876 112.517 65.4137 107.191 65.4137 100.621H55.4137ZM48.5173 107.517V108.897H58.5173V107.517H48.5173ZM53.5173 103.897H17.6553V113.897H53.5173V103.897ZM22.6553 108.897V107.379H12.6553V108.897H22.6553Z" fill="#407D60" mask="url(#path-12-inside-3)"/>
<path d="M9.33044 105.887C8.67011 103.273 10.7319 100.768 13.4239 100.913L35.5862 102.108L57.7485 100.913C60.4405 100.768 62.5023 103.273 61.842 105.887L60.176 112.481C58.0449 120.917 50.4557 126.828 41.7548 126.828H35.5862H29.4176C20.7167 126.828 13.1276 120.917 10.9964 112.481L9.33044 105.887Z" fill="#407D60"/>
<rect x="27.3105" y="122.69" width="16.5517" height="6.89655" rx="2" fill="#407D60"/>
<path fill-rule="evenodd" clip-rule="evenodd" d="M134.187 31.541C133.332 30.8423 132.072 30.9694 131.373 31.8249L97.7384 73.0076L97.7386 73.0077L94.4054 82.8647C94.1396 83.6507 94.3893 84.519 95.0319 85.0438C95.6744 85.5686 96.5752 85.6398 97.2922 85.2224L106.285 79.9875L106.285 79.9875L106.285 79.9874L139.919 38.8049C140.618 37.9494 140.491 36.6894 139.635 35.9907L134.187 31.541Z" fill="#407D60"/>
</svg>
