<svg width="130" height="130" viewBox="0 0 130 130" fill="none" xmlns="http://www.w3.org/2000/svg">
<circle cx="65" cy="65" r="65" fill="#DEDDDD"/>
<circle cx="65.1597" cy="49" r="25" fill="#A8A8A8"/>
<path fill-rule="evenodd" clip-rule="evenodd" d="M23.6753 115.175C23.0142 112.709 22.8174 110.067 23.1788 107.357L25.8453 87.3567C27.148 77.5875 35.3633 70.25 45.1661 70.0062C50.3687 74.9595 57.4092 77.9999 65.1597 77.9999C72.9102 77.9999 79.9507 74.9595 85.1534 70.0062C94.9561 70.25 103.171 77.5875 104.474 87.3567L107.141 107.357C107.485 109.943 107.322 112.468 106.731 114.836C95.462 124.283 80.9405 129.978 65.0899 130C65.0601 130 65.0298 130 65.0001 130C64.9703 130 64.94 130 64.9102 130C49.2496 129.979 34.8868 124.419 23.6753 115.175Z" fill="#A8A8A8"/>
</svg>
