<svg width="48" height="48" viewBox="0 0 48 48" fill="none" xmlns="http://www.w3.org/2000/svg">
<path fill-rule="evenodd" clip-rule="evenodd" d="M31.3031 37.7156C31.6278 37.4586 31.4141 36.9484 31 36.9484C22.7158 36.9484 16 30.2327 16 21.9484C16 18.6615 17.0573 15.6215 18.8502 13.15C19.4065 12.383 18.837 11.2517 17.925 11.5085C11.621 13.284 7 19.0765 7 25.9484C7 34.2327 13.7158 40.9484 22 40.9484C25.5143 40.9484 28.7463 39.7398 31.3031 37.7156Z" fill="#9CC2B0"/>
<path d="M30.2662 8.15111C30.4471 7.37443 31.5528 7.37443 31.7337 8.15111C31.8186 8.51583 32.1585 8.76281 32.5316 8.73087C33.3262 8.66286 33.6679 9.7145 32.9851 10.1265C32.6645 10.32 32.5346 10.7196 32.6803 11.0646C32.9905 11.7992 32.0959 12.4492 31.4931 11.9271C31.21 11.682 30.7899 11.682 30.5068 11.9271C29.9039 12.4492 29.0094 11.7992 29.3196 11.0646C29.4652 10.7196 29.3354 10.32 29.0148 10.1265C28.332 9.7145 28.6737 8.66286 29.4682 8.73087C29.8414 8.76281 30.1813 8.51583 30.2662 8.15111Z" fill="#9CC2B0"/>
<path d="M39.7632 13.8444C39.5406 13.1586 40.468 12.7071 40.8706 13.3052C41.0672 13.5972 41.4669 13.668 41.7518 13.4611C42.3353 13.0375 43.0513 13.7799 42.6069 14.3477C42.3898 14.6249 42.4461 15.0269 42.7308 15.234C43.314 15.658 42.8292 16.5683 42.1519 16.3211C41.8212 16.2004 41.4562 16.3781 41.3473 16.7129C41.1243 17.3986 40.1086 17.2188 40.1345 16.4983C40.1471 16.1464 39.8653 15.8543 39.5132 15.8541C38.7922 15.8539 38.6493 14.8324 39.3425 14.6343C39.6811 14.5376 39.8719 14.1793 39.7632 13.8444Z" fill="#9CC2B0"/>
<path d="M35.7592 22.9714C35.7944 22.2513 36.8215 22.158 36.9859 22.86C37.0661 23.2029 37.4147 23.4108 37.7545 23.3184C38.4502 23.1293 38.8564 24.0774 38.2395 24.4506C37.9382 24.6329 37.8482 25.0287 38.041 25.3233C38.4359 25.9265 37.6597 26.6058 37.1141 26.1344C36.8477 25.9042 36.4435 25.9409 36.2229 26.2153C35.7711 26.7773 34.8853 26.249 35.165 25.5844C35.3016 25.2599 35.1418 24.8868 34.8126 24.7618C34.1386 24.5059 34.3673 23.5001 35.0857 23.5608C35.4366 23.5904 35.742 23.3231 35.7592 22.9714Z" fill="#9CC2B0"/>
</svg>
