<svg width="48" height="48" viewBox="0 0 48 48" fill="none" xmlns="http://www.w3.org/2000/svg">
<path d="M10.3966 16.3621C10.1836 14.0197 12.028 12 14.3801 12H31.6199C33.972 12 35.8164 14.0197 35.6034 16.3621L34.3307 30.3621C34.1434 32.4225 32.416 34 30.3471 34H15.6529C13.584 34 11.8566 32.4225 11.6693 30.3621L10.3966 16.3621Z" fill="#9CC2B0"/>
<rect x="4" y="37" width="40" height="2" rx="1" fill="#9CC2B0"/>
<path d="M32 21C32 18.7909 33.7909 17 36 17H36.8702C39.4025 17 41.2975 19.3232 40.7887 21.8038L40.1733 24.8038C39.7916 26.6644 38.1542 28 36.2549 28H36C33.7909 28 32 26.2091 32 24V21Z" stroke="#9CC2B0" stroke-width="2"/>
</svg>
