<svg width="40" height="40" viewBox="0 0 40 40" fill="none" xmlns="http://www.w3.org/2000/svg">
<path fill-rule="evenodd" clip-rule="evenodd" d="M20 37C26.0751 37 31 32.0751 31 26C31 19.9249 21.0751 4 20 4C18.9249 4 9 19.9249 9 26C9 32.0751 13.9249 37 20 37ZM14.9614 30.14C16.9214 30.14 18.2714 28.67 18.2714 26.27C18.2714 23.87 16.9214 22.46 14.9614 22.46C13.0014 22.46 11.6514 23.86 11.6514 26.27C11.6514 28.67 13.0014 30.14 14.9614 30.14ZM14.9614 28.86C13.8614 28.86 13.1614 27.85 13.1614 26.27C13.1614 24.68 13.8614 23.73 14.9614 23.73C16.0614 23.73 16.7614 24.68 16.7614 26.27C16.7614 27.85 16.0614 28.86 14.9614 28.86ZM20.2167 30H21.6967V22.59H20.2167V30ZM28.5075 30H24.0175V22.59H25.4975V28.76H28.5075V30Z" fill="#83A7DD"/>
</svg>
